<svg xmlns="http://www.w3.org/2000/svg" xmlns:xlink="http://www.w3.org/1999/xlink"><symbol viewBox="0 0 249.5 108.99" id="arrow-right" xmlns="http://www.w3.org/2000/svg"><title>arrow-right</title><path fill="none" stroke="#000" stroke-linecap="round" stroke-linejoin="round" stroke-width="10" d="M195 104l49.5-49.5L195 5M5 54.5h235"/></symbol><symbol viewBox="0 0 1505.1 1012.6" id="krig-logomark" xmlns="http://www.w3.org/2000/svg"><path d="M1505.1 324.1l-207.8-120.5-1.2-.7-163.5.8v-95.2L944.7 0 4.3 340.7 1 341.9 0 679.4l187.8 108.4L378 719.2l-.5 178.2L574.3 1011l2.9 1.7L1045.6 666l459.4-2.9v-339zM577.3 669.5l-1.4-.8h2.4l-1 .8zm5.5 8.6l12.6-9.3 87.7.1-100.5 73.3.2-64.1zm110.8-19.4l-84.5-.1 84.8-62.8-.3 62.9zm-101.5-.1h-34.5L522 638.9V494.7l172.8-62.6-.8 151.1-101.9 75.4zm-80.2 1.4l-123.7 44.7.4-128.2 123.3 68.4V660zM184.2 774L17.1 677.6 184.2 617v157zm-174-104.7l.9-315 173.1 99.9v152.1l-174 63zM950.7 15.2l164.8 95.1-164.8 59.4V15.2zm-10.1 158.2l-92.1 33.2v159.1l-143.3 51.9.5-91.1-188.7 1.2-327.2 118L18 346.5 940.6 12.3v161.1zm181.8 260l-72.6-41.9.2-56.5 72.5-.5v98.9zm-6.9 7.7l-65.9 23.8.2-61.7 65.7 37.9zm-75.9-55.5l-34.6-20 34.7-25.7-.1 45.7zm5.2-60.8h-1.7l-47.7 35.3-44.8-25.9V214.7l171.7-.9v110.4l-77.5.6zm-104.2 7.5l-82 29.7V215.2l81.9-.4v117.5zM883 204.9l57.5-20.8v20.5l-57.5.3zM522.1 337.8l163.1-1-163.1 121.5V337.8zm173.3 4l-.5 79.5L522 483.9V471l173.4-129.2zm-501.1 113L511.9 340v125.8L455.2 508l-260.9 94.5V454.8zm317.6 23.7v9l-23.6 8.5 23.6-17.5zm0 19.9v134.9l-119-66 67.2-50.1 51.8-18.8zm10.2 152.1l14.6 8.1h-14.6v-8.1zm183-222.1l143.4-51.9v92.4L704.2 575.6l.9-147.2zm153.5-55.6l85.1-30.8 42.8 24.7-128 94.7v-88.6zm137.6-.6l43.4 25.1-.2 71.2-180.8 65.2V474l137.6-101.8zm43.2 107.1l-.2 55.6-156.2.8 156.4-56.4zm10.1-3.6l83-29.9V334.4l156.3-1v200.3l-239.5 1.2.2-59.2zm243.8 68.1l188 109.2-432.3 2.8.3-110.8 244-1.2zm5.7-8.4v-202l195.9-1.2v317.1L1299 535.4zm0-319.1L1481.3 322l-182.3 1.2V216.3zm-10.1-3.3v110.2l-156.3 1V213.8l156.3-.8zm-338.2-8.4v-24.1l171.7-61.9v85.1l-171.7.9zM194.3 774.7V613.4L427 529.1l-48.6 36.2-.4 143.1-183.7 66.3zm323.6-106H555l17.7 9.8-.2 71.1-184.8 134.8.5-169 129.7-46.7zm53.9 329.1L391.9 894l180.5-131.7-.6 235.5zm10.1-1.3l.7-241.7 121.1-88.4.4-78.1 144.3-106.8v64.6l190.7-1-.3 113.3-456.9 338.1z"/></symbol></svg>